<svg id="Layer_1" data-name="Layer 1" xmlns="http://www.w3.org/2000/svg" viewBox="0 0 4009.36 1144.39"><defs><style>.cls-1{fill:#024faa;}.cls-2{fill:#c60610;}.cls-3{fill:#ff8500;}</style></defs><path class="cls-1" d="M520,266.78c-49,16.08-91.53,42.33-124.87,81.27C312,445.16,286.26,554.49,330.48,676.51c16.53,45.58,46.93,81.44,88,107.86,3.43,2.21,6.37,5.2,11.51,9.46-27.88,21.82-57.5,35-91.12,37.23C258.18,836.38,202,796.38,161.67,730.85,70.25,582.26,132.05,363.92,286.76,283.47c60.49-31.45,124.56-33.22,190-27.54,14.3,1.25,28.51,3.61,42.75,5.47Z"/><path class="cls-2" d="M368.91,883c70.6-22.87,121.92-63,159.75-119.92,19.3-29,34.36-60.28,42.66-97.24H451.73c0-35.55-.53-69,.8-102.47.13-3.45,11.31-9.18,17.43-9.26,54.62-.72,109.25-.4,163.87-.41q58,0,116,0c24.31,0,26,1.37,25.11,26.29-5.58,148.73-96.21,271-249.11,303C480.42,892.35,411.3,893.41,368.91,883Z"/><path class="cls-3" d="M464.51,354.57c101.37-81.79,239-26.14,284.33,99-6.23.64-11.86,1.72-17.49,1.73-52.68.14-105.36-.13-158,.28-11.22.09-18.2-2.45-23.93-14.09C534,410.11,509.22,384.8,479.8,365.94,474.92,362.81,470.6,359.16,464.51,354.57Z"/><path class="cls-1" d="M813.87,477.83h47.19V796.75a22.88,22.88,0,0,1-22.7,23.06H813.87Zm20.58,151.83H949.2A43.61,43.61,0,0,0,973,623.08a43,43,0,0,0,16.08-18.68q5.67-12.1,5.67-27.85t-5.67-27.86a43.39,43.39,0,0,0-16-18.68q-10.3-6.59-23.95-6.58H834.45v-45.6h112.9q29.16,0,51.24,12.22a85,85,0,0,1,34.24,34.67Q1045,547.16,1045,576.55t-12.26,51.82A85.79,85.79,0,0,1,998.36,663q-22.1,12.23-51,12.22H834.45Zm91.62,35,47-10.81,86.06,165.94h-29.67A42.69,42.69,0,0,1,991.25,796Zm201.94,143q-26.84-15.63-41.52-44.19t-14.69-66.17V600.52q0-37.6,14.69-66.16T1128,490.17q26.84-15.63,62-15.63t62,15.63q26.84,15.63,41.53,44.19t14.69,66.16v96.83q0,37.62-14.69,66.17T1252,807.71q-26.84,15.63-62,15.63T1128,807.71Zm98.67-41.14a63.6,63.6,0,0,0,24.52-27q8.67-17.5,8.68-40.54V598.87q0-23-8.68-40.54a63.72,63.72,0,0,0-24.52-27q-15.84-9.51-36.67-9.52t-36.66,9.52a63.74,63.74,0,0,0-24.53,27q-8.67,17.52-8.68,40.54V699q0,23,8.68,40.54a63.63,63.63,0,0,0,24.53,27q15.83,9.52,36.66,9.53T1226.68,766.57Zm303.46-288.5h32.39L1631.47,746l59.45-267.94h49l-82.13,341.74h-48.12l-62-238.8-64.78,238.8h-48.12L1352.7,478.07h49L1461.2,746ZM1830,819.81h0c-26.07,0-47.2-21.47-47.2-47.95V526c0-26.48,21.13-47.95,47.2-47.95h0Zm70-341.74h42.8l164.48,264.18-5.55,6.11V478.07h0c25.81,0,46.73,21.25,46.73,47.48v294h-43.26l-164-260.18,5.55-6.11V819.57h0c-25.81,0-46.73-21.25-46.73-47.48Zm548.39,157.7v59.71q0,38.06-14.57,67.1t-41.3,44.89q-26.73,15.87-61.88,15.87-35.64,0-62.59-14.93a103.81,103.81,0,0,1-41.75-42.19Q2211.46,739,2211.45,703V602.17q0-38.08,14.57-67t41.3-44.77q26.73-15.87,61.89-15.87a114.72,114.72,0,0,1,53.32,12.58,113.54,113.54,0,0,1,40.84,35.6q16.43,23,22.2,53.36H2405.4a15,15,0,0,1-14-9.87,70.38,70.38,0,0,0-11.09-19.63,67.51,67.51,0,0,0-23.36-18.8,63.27,63.27,0,0,0-27.76-6.47q-20.84,0-36.56,10.11t-24.28,28.32q-8.57,18.21-8.57,42.43V703q0,22.1,8.79,38.67a63.08,63.08,0,0,0,24.88,25.74q16.07,9.17,37.13,9.16,20.82,0,36.54-9.52t24.3-27.62q8.55-18.09,8.56-43v-14.8h-68.25V660.73a24.77,24.77,0,0,1,24.56-25Z"/><path class="cls-1" d="M2551.41,606.69q0-97.73,49-163.5t132.3-65.77q93.73,0,143.68,60.54t49.94,168.73q0,111-50.09,173.8t-143.53,62.85q-85.14,0-133.23-66.39T2551.41,606.69Zm64.54,0q0,77.44,30.58,129.39t86.2,51.94q63,0,96-47.64t33-133.69q0-174-129.08-174-57.17,0-87,46.71T2616,606.69Z"/><path class="cls-1" d="M3133.18,805.29l-77-123.87q-15.54,0-49.18-2.32V827.34h0a46.4,46.4,0,0,1-46.4-46.4V487.48q2.55,0,36.08-1.74t48.83-1.74Q3168,484,3168,581.43a92.11,92.11,0,0,1-19.72,57.65q-19.71,25.63-46.85,31.9L3200,827.34h-27.16A46.73,46.73,0,0,1,3133.18,805.29ZM3007,529.24V639.66a235.44,235.44,0,0,0,32.48,2.32q41.74,0,60.78-13.45t19-48q0-28.54-20.42-41.06t-64.49-12.53Q3027.41,526.92,3007,529.24Z"/><path class="cls-1" d="M3331.77,827.34h-80a16.94,16.94,0,0,1-16.94-17V508.47a22,22,0,0,1,21-22q45.8-2,68.29-2,50.33,0,78,21.69t27.6,62.05q0,23.67-17.63,43.15t-39,24.36q40.36,9.74,58.81,32.24t18.44,61.25q0,44.77-32.83,71.45T3331.77,827.34ZM3281.2,524.6v97.66q14.61,1.4,36.19,1.4,65.88,0,65.88-53.59,0-47.1-60.55-47.09Q3299.53,523,3281.2,524.6Zm0,133.62V787.9q23.9,2.33,36.65,2.32,43.62,0,63.68-16.35t20.06-52.09q0-33.16-19.13-48.94t-63.9-15.78Z"/><path class="cls-1" d="M3511.78,780.94V533.88a46.39,46.39,0,0,1,46.4-46.4h0V827.34h0A46.4,46.4,0,0,1,3511.78,780.94Z"/><path class="cls-1" d="M3759.79,529.24v298.1h0a46.4,46.4,0,0,1-46.4-46.4V529.24h-108.1A41.76,41.76,0,0,1,3647,487.48h184a41.76,41.76,0,0,1,41.76,41.76h-113Z"/></svg>