<svg id="Layer_1" data-name="Layer 1" xmlns="http://www.w3.org/2000/svg" xmlns:xlink="http://www.w3.org/1999/xlink" viewBox="0 0 731.16 282.96"><defs><style>.cls-1{fill:none;}.cls-2{opacity:0.39;fill:url(#linear-gradient);}.cls-3{fill:url(#linear-gradient-2);}.cls-4{fill:#f0862a;}.cls-5{fill:url(#linear-gradient-3);}.cls-6{fill:url(#linear-gradient-4);}.cls-7{fill:url(#linear-gradient-5);}.cls-8{fill:url(#linear-gradient-6);}.cls-9{fill:url(#linear-gradient-7);}.cls-10{fill:url(#linear-gradient-8);}.cls-11{clip-path:url(#clip-path);}.cls-12{fill:url(#linear-gradient-9);}.cls-13{fill:#f46b20;}</style><linearGradient id="linear-gradient" x1="127.4" y1="130.67" x2="671.73" y2="130.67" gradientUnits="userSpaceOnUse"><stop offset="0.03" stop-color="#e9bd00"/><stop offset="0.05" stop-color="#eeca21"/><stop offset="0.07" stop-color="#f3da48"/><stop offset="0.1" stop-color="#f7e666"/><stop offset="0.13" stop-color="#fbef7c"/><stop offset="0.16" stop-color="#fcf489"/><stop offset="0.18" stop-color="#fdf68d"/><stop offset="0.86" stop-color="#fff"/><stop offset="0.99" stop-color="#fff"/><stop offset="1" stop-color="#fff"/></linearGradient><linearGradient id="linear-gradient-2" x1="-26.95" y1="75.2" x2="280.2" y2="75.2" gradientUnits="userSpaceOnUse"><stop offset="0.11" stop-color="#2d6acc"/><stop offset="0.53" stop-color="#2554a6"/><stop offset="0.85" stop-color="#193a73"/></linearGradient><linearGradient id="linear-gradient-3" x1="10.62" y1="193.88" x2="342.45" y2="193.88" xlink:href="#linear-gradient-2"/><linearGradient id="linear-gradient-4" x1="10.62" y1="183.47" x2="342.45" y2="183.47" xlink:href="#linear-gradient-2"/><linearGradient id="linear-gradient-5" x1="10.62" y1="180.55" x2="342.45" y2="180.55" xlink:href="#linear-gradient-2"/><linearGradient id="linear-gradient-6" x1="10.62" y1="188.42" x2="342.45" y2="188.42" xlink:href="#linear-gradient-2"/><linearGradient id="linear-gradient-7" x1="10.62" y1="214.95" x2="342.45" y2="214.95" xlink:href="#linear-gradient-2"/><linearGradient id="linear-gradient-8" x1="359" y1="183.96" x2="718.74" y2="183.96" gradientUnits="userSpaceOnUse"><stop offset="0.22" stop-color="#de3336"/><stop offset="0.47" stop-color="#de2629"/><stop offset="0.81" stop-color="#b52629"/></linearGradient><clipPath id="clip-path"><polygon class="cls-1" points="141.22 16.37 669.73 238.13 376.62 244.08 125.57 26.03 141.22 16.37"/></clipPath><linearGradient id="linear-gradient-9" x1="295.15" y1="184.13" x2="719.95" y2="184.13" gradientUnits="userSpaceOnUse"><stop offset="0.28" stop-color="#f4cf20"/><stop offset="0.66" stop-color="#f49c20"/><stop offset="0.97" stop-color="#f44f20"/></linearGradient></defs><polygon class="cls-2" points="143.06 17.25 671.73 238.15 378.52 244.08 127.4 26.88 143.06 17.25"/><path class="cls-3" d="M137.66,36.5c-.8,2.57-1.64,5.14-2.39,7.73-2.09,7.23-2.14,7.24-9,3.72-3.42-1.75-6.81-4-7.87-7.63-2.9-10.11-11-14.18-19.55-17.93-3.72-1.64-4.74-6.39-10.2-6.66-12.48-.62-22.47,4.17-26.38,14.34-5,13-1.83,24.57,8.61,32.13,4.63,3.36,10,5,15.28,6.8,5.54,1.87,8.39,5.7,9.55,11.2.94,4.48-.75,9.6,3.55,13.31,1.13,1,.55,3-.47,4-3.29,3.19-3.33,5.52,1,7.75,2,1,2.39,2.76,1.33,5.25-3.33,7.82-.72,13.33,7.1,16,4.93,1.65,10.76,9.42,9.87,14-.54,2.76-3.82,2.81-6.07,3.3-9.45,2-19,1.57-28.56.85a61.57,61.57,0,0,1-7.42-.89c-2.61-.53-7.46-1.73-7.1-2.6,1.28-3,0-6.66,3-9.39,2.72-2.49,5-4.77,8.87-5.8,5.88-1.56,8.77-9.52,5.49-14.81-2.27-3.67-.91-5.29,2-6.82s4.31-2.83,1.06-5.82c-2.15-2-1.6-4.9.07-7.44,5.21-7.86,3-15.21-5.87-18.58-8.28-3.13-15.93-7-21.52-14.16C49.67,42.5,59.52,16.74,79.21,12.81c7.11-1.42,14.47,0,21.45-2.81,2.87-1.14,6.38.71,9.25,1.28,6.75,1.33,12.47,1,18-3.06A6.85,6.85,0,0,1,129,7.67c4.88-2.28,10.56-3.86,14.93-1,3.88,2.54-1.36,6.87-.86,10.58C143.51,24.3,141.42,30.63,137.66,36.5Z"/><path class="cls-4" d="M144.62,18.08c2.24,7.08-.39,12.86-4.84,18.17l-2.12.25,5.4-19.25Z"/><rect class="cls-5" x="86.72" y="149.6" width="14.28" height="88.55"/><polygon class="cls-6" points="24.74 128.79 10.62 128.79 10.62 238.15 71.47 238.15 71.47 226.31 24.74 226.31 24.74 128.79"/><path class="cls-7" d="M254.83,157.83a29.34,29.34,0,0,0-14.61,4.06A26.43,26.43,0,0,0,230,172h-.32v-49H215.4V238.15h14.28V190.77a17.26,17.26,0,0,1,1-6.81c2.6-7.79,9.9-14.28,19.15-14.28,13.46,0,18.17,10.7,18.17,23.36v45.11h14.28V191.42C282.25,164.32,265.37,157.83,254.83,157.83Z"/><path class="cls-8" d="M342.45,170.49V159.62H322V137.06l-13.95,3.73v18.83H295.88v10.87h12.17v42.83c0,9.25,1.46,16.23,5.52,20.45,3.4,3.89,8.76,6,15.41,6a35.12,35.12,0,0,0,12.66-1.94L341,227.12a32.12,32.12,0,0,1-8.28,1c-7.95,0-10.71-5.52-10.71-15.25V170.49Z"/><path class="cls-9" d="M179.21,171.46h-.32c-3.41-6.49-10.87-13.63-24.5-13.63-18,0-35.38,15.09-35.38,41.7,0,21.75,14,38.3,33.43,38.3,12.17,0,20.61-5.85,25-13.15h.32v8.76c0,19.8-10.71,27.43-25.31,27.43a44.21,44.21,0,0,1-23-6.17l-3.57,10.87c6.33,4.22,16.71,6.49,26.12,6.49,9.9,0,20.93-2.27,28.56-9.41,7.63-6.81,11.2-17.85,11.2-35.86V181.2c0-9.58.32-15.91.65-21.58h-12.5Zm-1.62,33.26a24.87,24.87,0,0,1-1.14,7.63A20.86,20.86,0,0,1,156.66,227c-15.42,0-23.21-12.81-23.21-28.23,0-18.17,9.74-29.69,23.37-29.69,10.38,0,17.36,6.81,20,15.09a20.26,20.26,0,0,1,.81,6.49Z"/><path class="cls-10" d="M359,130.25A136.57,136.57,0,0,1,384.8,128c14.12,0,23.2,2.44,30,8,5.68,4.21,9.08,10.7,9.08,19.3,0,10.55-7,19.8-18.49,24v.32C415.79,182.17,428,190.77,428,207a29.45,29.45,0,0,1-9.25,21.9c-7.62,7-20,10.22-37.81,10.22a167,167,0,0,1-21.9-1.29ZM373.12,175h12.82c14.92,0,23.69-7.79,23.69-18.33,0-12.82-9.74-17.85-24-17.85a60.34,60.34,0,0,0-12.49,1Zm0,52.41a74.88,74.88,0,0,0,11.84.65c14.6,0,28.07-5.35,28.07-21.26,0-14.92-12.82-21.09-28.23-21.09H373.12Zm81.94-26c.32,19.31,12.65,27.26,26.93,27.26,10.23,0,16.39-1.79,21.75-4.06l2.43,10.23c-5,2.27-13.63,4.86-26.12,4.86-24.18,0-38.62-15.9-38.62-39.59s13.95-42.35,36.83-42.35c25.64,0,32.45,22.55,32.45,37a54.55,54.55,0,0,1-.48,6.65Zm41.86-10.22c.16-9.09-3.73-23.21-19.79-23.21-14.44,0-20.77,13.31-21.91,23.21Zm75,46.89-1.14-9.9h-.48c-4.39,6.17-12.82,11.69-24,11.69-15.9,0-24-11.2-24-22.56,0-19,16.87-29.37,47.21-29.21v-1.62c0-6.49-1.78-18.17-17.84-18.17a39.13,39.13,0,0,0-20.45,5.84l-3.24-9.41c6.49-4.22,15.9-7,25.79-7,24,0,29.86,16.39,29.86,32.13v29.37a110.91,110.91,0,0,0,1.3,18.82Zm-2.11-40.08c-15.58-.32-33.27,2.44-33.27,17.69,0,9.25,6.17,13.63,13.47,13.63a19.54,19.54,0,0,0,19-13.14,15.15,15.15,0,0,0,.81-4.55Zm36.83-17.2c0-8.11-.16-14.76-.65-21.25h12.5l.65,12.65h.48c4.38-7.46,11.69-14.44,24.67-14.44,10.71,0,18.82,6.49,22.23,15.74h.32a32.45,32.45,0,0,1,8.76-10.22c4.71-3.57,9.9-5.52,17.37-5.52,10.38,0,25.8,6.82,25.8,34.08v46.24h-14V193.69c0-15.09-5.52-24.18-17-24.18-8.11,0-14.44,6-16.87,13a23.53,23.53,0,0,0-1.14,7.14v48.52h-14V191.09c0-12.49-5.52-21.58-16.39-21.58-8.92,0-15.42,7.14-17.69,14.28a19.74,19.74,0,0,0-1.13,7v47.38h-14Z"/><g class="cls-11"><path class="cls-12" d="M321.4,137.05V159.7h20.54v10.91H321.4v42.51c0,9.78,2.77,15.32,10.76,15.32a31.8,31.8,0,0,0,8.31-1l.65,10.75c-2.77,1.14-7.17,1.95-12.71,1.95-6.69,0-12.07-2.11-15.49-6-4.07-4.24-5.54-11.24-5.54-20.53v-43H295.15V159.7h12.23V140.8Zm37.16-6.84a137.88,137.88,0,0,1,25.92-2.28c14.18,0,23.31,2.45,30.16,8,5.7,4.24,9.13,10.75,9.13,19.39,0,10.59-7,19.87-18.59,24.11v.32c10.43,2.61,22.66,11.24,22.66,27.53a29.58,29.58,0,0,1-9.29,22c-7.66,7-20.05,10.26-38,10.26a166.41,166.41,0,0,1-22-1.3Zm14.18,45h12.88c15,0,23.8-7.82,23.8-18.41,0-12.87-9.78-17.91-24.12-17.91a61.12,61.12,0,0,0-12.56,1Zm0,52.61a75.59,75.59,0,0,0,11.9.66c14.67,0,28.2-5.38,28.2-21.34,0-15-12.87-21.18-28.36-21.18H372.74Zm82.32-26.06c.33,19.39,12.72,27.37,27.06,27.37,10.27,0,16.46-1.79,21.84-4.07l2.45,10.26c-5.05,2.28-13.69,4.88-26.25,4.88-24.28,0-38.79-16-38.79-39.74s14-42.52,37-42.52c25.76,0,32.6,22.65,32.6,37.14a52.44,52.44,0,0,1-.49,6.68Zm42.06-10.26c.16-9.12-3.75-23.29-19.89-23.29-14.51,0-20.86,13.35-22,23.29Zm75.31,47.08-1.15-9.94h-.48c-4.41,6.19-12.88,11.73-24.13,11.73-16,0-24.12-11.24-24.12-22.64,0-19.06,17-29.49,47.43-29.33v-1.62c0-6.52-1.79-18.25-17.93-18.25a39.26,39.26,0,0,0-20.54,5.87l-3.26-9.45c6.52-4.24,16-7,25.92-7,24.12,0,30,16.46,30,32.26v29.48a110.79,110.79,0,0,0,1.31,18.9Zm-2.12-40.24c-15.65-.32-33.42,2.44-33.42,17.76,0,9.28,6.19,13.68,13.53,13.68a19.63,19.63,0,0,0,19.07-13.2,14.87,14.87,0,0,0,.82-4.56Zm37-17.27c0-8.14-.16-14.82-.65-21.33h12.55l.65,12.7h.49c4.4-7.49,11.74-14.5,24.78-14.5,10.76,0,18.91,6.52,22.33,15.8h.32a32.72,32.72,0,0,1,8.81-10.26c4.72-3.58,9.94-5.54,17.44-5.54,10.43,0,25.92,6.84,25.92,34.21v46.43h-14V193.9c0-15.15-5.54-24.27-17.12-24.27-8.15,0-14.51,6-16.95,13a23.68,23.68,0,0,0-1.14,7.17v48.71h-14V191.3c0-12.55-5.54-21.67-16.46-21.67-9,0-15.49,7.17-17.77,14.34a19.6,19.6,0,0,0-1.14,7v47.57h-14Z"/></g><polygon class="cls-13" points="656.76 232.8 655.78 232.27 655.78 238.41 656.76 238.39 656.76 232.8"/></svg>